<?xml version="1.0" encoding="utf-8"?>
<!-- Generator: Adobe Illustrator 19.0.0, SVG Export Plug-In . SVG Version: 6.00 Build 0)  -->
<svg version="1.1" id="Capa_1" xmlns="http://www.w3.org/2000/svg" xmlns:xlink="http://www.w3.org/1999/xlink" x="0px" y="0px"
	 viewBox="0 0 165 35.8" style="enable-background:new 0 0 165 35.8;" xml:space="preserve">
<style type="text/css">
	.st0{fill:#FFFFFF;}
</style>
<g id="XMLID_1_">
	<path id="XMLID_15_" class="st0" d="M3.1,35.3V22h-3v-5.1h3v-0.4c0-4.4,2.7-7,6.4-7c1.9,0,3.9,0.6,5.1,1.7l-2.1,3.7
		c-0.4-0.4-1-0.6-1.9-0.6c-1,0-1.9,0.7-1.9,2.3v0.4h3.6V22H8.8v13.4H3.1z"/>
	<path id="XMLID_14_" class="st0" d="M15.2,35.3V16.9h5.7v2.3c1.2-1.5,3.5-2.7,5.6-2.7V22c-0.3-0.1-0.8-0.2-1.4-0.2
		c-1.5,0-3.5,0.6-4.2,1.7v11.8H15.2z"/>
	<path id="XMLID_13_" class="st0" d="M77.6,35.3V24.6c0-2.3-1.2-3-3-3c-1.7,0-2.8,1-3.5,1.8v11.9h-5.7V9.8h5.7v9.3
		c1.1-1.3,3.2-2.7,6.2-2.7c4.1,0,5.9,2.4,5.9,5.8v13.1H77.6z"/>
	<path id="XMLID_2_" class="st0" d="M99.2,26.1c0-2.4-1.4-4.5-3.9-4.5c-2.5,0-3.9,2-3.9,4.5c0,2.5,1.4,4.5,3.9,4.5
		C97.8,30.6,99.2,28.6,99.2,26.1 M85.6,26.1c0-5.2,3.6-9.7,9.7-9.7c6.2,0,9.8,4.5,9.8,9.7c0,5.2-3.6,9.7-9.8,9.7
		C89.2,35.8,85.6,31.3,85.6,26.1"/>
	<path id="XMLID_10_" class="st0" d="M119.5,35.3v-2.2c-1.1,1.3-3.2,2.7-6.2,2.7c-4.1,0-5.9-2.4-5.9-5.8V16.9h5.7v10.7
		c0,2.3,1.1,3,3,3c1.6,0,2.8-0.9,3.4-1.8V16.9h5.7v18.4H119.5z"/>
	<path id="XMLID_9_" class="st0" d="M127.8,32.9l2.4-4.2c1.3,1.2,4.2,2.5,6.3,2.5c1.7,0,2.4-0.5,2.4-1.3c0-2.3-10.4,0.1-10.4-7.4
		c0-3.2,2.7-6.1,7.7-6.1c3,0,5.6,1,7.5,2.4l-2.2,4.2c-1.1-1.1-3.1-2-5.3-2c-1.3,0-2.2,0.5-2.2,1.3c0,2,10.4-0.1,10.4,7.5
		c0,3.5-3,6-8.1,6C133,35.8,129.7,34.7,127.8,32.9"/>
	<path id="XMLID_3_" class="st0" d="M155.7,21.1c-2.5,0-3.5,1.5-3.7,2.9h7.4C159.3,22.7,158.3,21.1,155.7,21.1 M146.2,26.1
		c0-5.3,3.9-9.7,9.5-9.7c5.3,0,9.2,4,9.2,10.3V28h-12.8c0.4,1.6,1.9,3,4.5,3c1.3,0,3.3-0.6,4.4-1.6l2.5,3.9
		c-1.8,1.6-4.8,2.4-7.5,2.4C150.4,35.8,146.2,32.1,146.2,26.1"/>
	<path id="XMLID_4_" class="st0" d="M36.5,20.6L36.5,20.6c0.5,0,0.8,0.4,0.9,1c0,1.4-1.5,4-4.8,5.4C32.5,23.5,34.6,20.7,36.5,20.6
		 M38.2,30.9c-0.2,0-0.4,0-0.6,0c-0.9-0.1-1.8-0.3-2.4-0.6c3.4-1.3,6.8-4.6,6.8-8.4c0-1.5-0.5-3-1.6-4c-1-1-2.5-1.6-4-1.6
		c-2,0-3.9,0.8-5.5,2.4c-2,2-3.2,5.1-3.2,8c0.1,2.9,1.2,5.2,3.2,6.8c1.7,1.3,4,2,6.5,2.1c0.1,0,0.2,0,0.3,0c2.7,0,6.9-1.1,9-3.2
		c0.8-0.8,0.7-3.3-0.6-4.2C45.1,27.5,42.4,30.9,38.2,30.9"/>
	<path id="XMLID_16_" class="st0" d="M53,20.6L53,20.6c0.5,0,0.8,0.4,0.9,1c0,1.4-1.5,4-4.8,5.4C49,23.5,51.1,20.7,53,20.6
		 M54.7,30.9c-0.2,0-0.4,0-0.6,0c-0.9-0.1-1.8-0.3-2.4-0.6c3.4-1.3,6.8-4.6,6.8-8.4c0-1.5-0.5-3-1.5-4c-1-1-2.5-1.6-4-1.6
		c-2,0-3.9,0.8-5.5,2.4c-2,2-3.2,5.1-3.2,8c0.1,2.9,1.2,5.2,3.2,6.8c1.7,1.3,4,2,6.5,2.1c0.1,0,0.2,0,0.3,0c2.7,0,6.9-1.1,9-3.2
		c0.8-0.8,0.7-3.3-0.6-4.2C61.6,27.5,58.9,30.9,54.7,30.9"/>
	<path id="XMLID_19_" class="st0" d="M45.5,0.6C44.7,0.2,44.2,0,43.6,0c-0.5,0-1.1,0.2-1.8,0.6c-3.8,2.4-9.8,6.9-12.8,9.8
		c-0.2,0.2-0.2,0.3-0.2,0.3c0,0,0.1,0.2,0.3,0.4c0,0,0.1,0,0.1,0.1c0.4,0.5,1.3,1,2.4,1.6c0.4,0.2,0.6,0.3,0.9,0.3
		c0.4,0,0.8-0.2,1.5-0.6c2.4-1.6,5.7-3.7,9.2-6.2c0.1-0.1,0.3-0.1,0.4-0.1c0.2,0,0.3,0,0.4,0.1c3,2.2,6,4.1,8.1,5.4
		c0.4,0.3,0.8,0.5,1.2,0.8c0.7,0.4,1.1,0.6,1.5,0.6c0.3,0,0.5-0.1,0.9-0.3c0.8-0.4,1.9-1.1,2.5-1.7c0,0,0,0,0,0
		c0.2-0.2,0.3-0.3,0.3-0.4c0,0,0-0.1-0.2-0.3C55,7.3,49.7,3.3,45.5,0.6"/>
</g>
</svg>
